<svg width="82" height="82" viewBox="0 0 82 82" fill="none" xmlns="http://www.w3.org/2000/svg">
<rect width="82" height="82" rx="41" fill="#92D700"/>
<path fill-rule="evenodd" clip-rule="evenodd" d="M55.475 42.9799L48.065 31.9099C47.7856 31.4965 47.3189 31.2491 46.82 31.2499C46.2766 31.2423 45.7717 31.5292 45.5 31.9999L38.3 42.8899C38.042 43.2739 37.9756 43.7554 38.12 44.1949L40.565 51.5899C40.7661 52.2068 41.3411 52.6244 41.99 52.6249C42.2701 55.1806 44.429 57.1158 47 57.1158C49.571 57.1158 51.7299 55.1806 52.01 52.6249C52.5896 52.5631 53.0809 52.1712 53.27 51.6199L55.655 44.2999C55.8044 43.8559 55.7378 43.3676 55.475 42.9799ZM47 54.1249C46.0766 54.1307 45.2644 53.5154 45.02 52.6249H48.98C48.7356 53.5154 47.9234 54.1307 47 54.1249ZM43.07 49.6249H50.75L52.58 43.9999L48.305 37.7749V40.7749C49.2286 41.3798 49.658 42.5103 49.3689 43.5758C49.0799 44.6413 48.1379 45.3998 47.0352 45.4549C45.9326 45.5101 44.9197 44.8493 44.5258 43.818C44.1318 42.7866 44.4463 41.6189 45.305 40.9249V37.8049L41.195 43.9999L43.07 49.6249Z" fill="black"/>
<path d="M36.95 36.5C36.9642 32.7125 39.9744 29.6161 43.76 29.495C44.4465 30.7628 45.9061 31.4026 47.3036 31.0485C48.7012 30.6944 49.6799 29.4367 49.6799 27.995C49.6799 26.5533 48.7012 25.2956 47.3036 24.9415C45.9061 24.5874 44.4465 25.2273 43.76 26.495H34.55C33.8642 25.2364 32.4121 24.6032 31.0232 24.9571C29.6342 25.3109 28.6621 26.5617 28.6621 27.995C28.6621 29.4283 29.6342 30.6791 31.0232 31.033C32.4121 31.3868 33.8642 30.7536 34.55 29.495H36.845C34.9973 31.3591 33.9573 33.8754 33.95 36.5C32.6823 37.1865 32.0424 38.6461 32.3965 40.0437C32.7506 41.4412 34.0083 42.42 35.45 42.42C36.8917 42.42 38.1494 41.4412 38.5035 40.0437C38.8576 38.6461 38.2177 37.1865 36.95 36.5Z" fill="black"/>
</svg>
