<svg width="327" height="30" viewBox="0 0 327 30" fill="none" xmlns="http://www.w3.org/2000/svg">
<path opacity="0.4" d="M79.744 16.432C80.528 16.848 81.12 17.384 81.52 18.04C81.92 18.68 82.12 19.416 82.12 20.248C82.12 21.16 81.904 21.976 81.472 22.696C81.056 23.4 80.44 23.96 79.624 24.376C78.808 24.792 77.832 25 76.696 25H69.16V8.2H76.672C77.76 8.2 78.696 8.4 79.48 8.8C80.264 9.2 80.856 9.744 81.256 10.432C81.672 11.12 81.88 11.896 81.88 12.76C81.88 13.56 81.704 14.272 81.352 14.896C81 15.52 80.464 16.032 79.744 16.432ZM76.552 15.544C77.512 15.544 78.232 15.32 78.712 14.872C79.208 14.408 79.456 13.744 79.456 12.88C79.456 11.232 78.488 10.408 76.552 10.408H71.56V15.544H76.552ZM76.576 22.792C77.568 22.792 78.32 22.568 78.832 22.12C79.344 21.672 79.6 21.016 79.6 20.152C79.6 19.32 79.344 18.696 78.832 18.28C78.32 17.848 77.568 17.632 76.576 17.632H71.56V22.792H76.576ZM95.9153 22.84V25H94.7633C94.1713 25 93.7073 24.856 93.3713 24.568C93.0353 24.264 92.8353 23.832 92.7713 23.272C92.2593 23.864 91.5953 24.344 90.7793 24.712C89.9793 25.064 89.1313 25.24 88.2353 25.24C86.9393 25.24 85.9313 24.92 85.2113 24.28C84.5073 23.64 84.1553 22.784 84.1553 21.712C84.1553 20.736 84.5393 19.904 85.3073 19.216C86.0753 18.512 87.1553 18.088 88.5473 17.944L89.8913 17.8C90.6433 17.72 91.2033 17.624 91.5713 17.512C91.9393 17.384 92.1713 17.248 92.2673 17.104C92.3793 16.96 92.4353 16.768 92.4353 16.528C92.4353 15.984 92.1713 15.56 91.6433 15.256C91.1313 14.936 90.4193 14.776 89.5073 14.776C88.9153 14.776 88.3473 14.936 87.8033 15.256C87.2593 15.56 86.8833 16 86.6753 16.576H84.2513C84.4753 15.456 85.0833 14.544 86.0753 13.84C87.0673 13.12 88.2513 12.76 89.6273 12.76C91.1473 12.76 92.3953 13.176 93.3713 14.008C94.3473 14.84 94.8353 16.032 94.8353 17.584V22.192C94.8353 22.4 94.8913 22.56 95.0033 22.672C95.1153 22.784 95.2673 22.84 95.4593 22.84H95.9153ZM88.4753 23.272C89.2273 23.272 89.9313 23.12 90.5873 22.816C91.2433 22.496 91.7633 22.08 92.1473 21.568C92.5473 21.04 92.7473 20.48 92.7473 19.888V18.808C92.2033 19.224 91.3393 19.496 90.1553 19.624L88.8113 19.768C87.9153 19.864 87.2913 20.08 86.9393 20.416C86.5873 20.752 86.4113 21.176 86.4113 21.688C86.4113 22.168 86.5873 22.552 86.9393 22.84C87.3073 23.128 87.8193 23.272 88.4753 23.272ZM97.5822 19C97.5822 17.848 97.8622 16.8 98.4222 15.856C98.9822 14.896 99.7502 14.144 100.726 13.6C101.702 13.04 102.782 12.76 103.966 12.76C105.294 12.76 106.486 13.152 107.542 13.936C108.614 14.704 109.318 15.712 109.654 16.96H107.158C106.886 16.32 106.446 15.816 105.838 15.448C105.246 15.064 104.582 14.872 103.846 14.872C103.094 14.872 102.422 15.056 101.83 15.424C101.238 15.776 100.774 16.272 100.438 16.912C100.102 17.536 99.9342 18.232 99.9342 19C99.9342 19.768 100.102 20.472 100.438 21.112C100.774 21.736 101.238 22.232 101.83 22.6C102.422 22.952 103.094 23.128 103.846 23.128C104.582 23.128 105.246 22.944 105.838 22.576C106.446 22.192 106.886 21.68 107.158 21.04H109.654C109.318 22.288 108.614 23.304 107.542 24.088C106.486 24.856 105.294 25.24 103.966 25.24C102.782 25.24 101.702 24.968 100.726 24.424C99.7502 23.864 98.9822 23.112 98.4222 22.168C97.8622 21.208 97.5822 20.152 97.5822 19ZM123.082 22.816V25H122.122C121.37 25 120.794 24.8 120.394 24.4C120.01 23.984 119.818 23.376 119.818 22.576V21.064C119.818 20.312 119.45 19.936 118.714 19.936H114.466V25H112.186V8.08H114.466V17.968H118.402C118.834 17.968 119.162 17.856 119.386 17.632C119.626 17.408 119.746 17.072 119.746 16.624V15.304C119.746 13.768 120.466 13 121.906 13H122.938V15.184H122.482C122.306 15.184 122.162 15.24 122.05 15.352C121.954 15.448 121.906 15.584 121.906 15.76V17.056C121.906 17.936 121.586 18.56 120.946 18.928C121.682 19.28 122.05 19.888 122.05 20.752V22.24C122.05 22.416 122.098 22.56 122.194 22.672C122.306 22.768 122.45 22.816 122.626 22.816H123.082ZM136.068 15.16V21.496C136.068 22.008 136.188 22.4 136.428 22.672C136.684 22.944 137.116 23.08 137.724 23.08C138.3 23.08 138.788 23.032 139.188 22.936V25.024C138.756 25.168 138.228 25.24 137.604 25.24C135.06 25.24 133.788 23.992 133.788 21.496V15.16H131.388V13H133.788V9.88H136.068V13H139.428V15.16H136.068ZM147.138 25.24C145.954 25.24 144.874 24.968 143.898 24.424C142.922 23.864 142.154 23.112 141.594 22.168C141.034 21.208 140.754 20.152 140.754 19C140.754 17.848 141.034 16.8 141.594 15.856C142.154 14.896 142.922 14.144 143.898 13.6C144.874 13.04 145.954 12.76 147.138 12.76C148.306 12.76 149.37 13.04 150.33 13.6C151.306 14.144 152.074 14.896 152.634 15.856C153.194 16.8 153.474 17.848 153.474 19C153.474 20.152 153.194 21.208 152.634 22.168C152.074 23.112 151.306 23.864 150.33 24.424C149.37 24.968 148.306 25.24 147.138 25.24ZM147.138 23.128C147.874 23.128 148.546 22.952 149.154 22.6C149.762 22.232 150.242 21.736 150.594 21.112C150.946 20.472 151.122 19.768 151.122 19C151.122 18.232 150.946 17.536 150.594 16.912C150.242 16.272 149.762 15.776 149.154 15.424C148.546 15.056 147.874 14.872 147.138 14.872C146.386 14.872 145.698 15.056 145.074 15.424C144.466 15.776 143.986 16.272 143.634 16.912C143.282 17.536 143.106 18.232 143.106 19C143.106 19.768 143.282 20.472 143.634 21.112C143.986 21.736 144.466 22.232 145.074 22.6C145.698 22.952 146.386 23.128 147.138 23.128ZM165.951 15.16V21.496C165.951 22.008 166.071 22.4 166.311 22.672C166.567 22.944 166.999 23.08 167.607 23.08C168.183 23.08 168.671 23.032 169.071 22.936V25.024C168.639 25.168 168.111 25.24 167.487 25.24C164.943 25.24 163.671 23.992 163.671 21.496V15.16H161.271V13H163.671V9.88H165.951V13H169.311V15.16H165.951ZM177.903 12.76C178.911 12.76 179.815 12.968 180.615 13.384C181.431 13.8 182.071 14.432 182.535 15.28C182.999 16.112 183.231 17.136 183.231 18.352V25H180.951V18.4C180.951 17.344 180.639 16.504 180.015 15.88C179.391 15.256 178.607 14.944 177.663 14.944C177.023 14.944 176.439 15.112 175.911 15.448C175.383 15.784 174.967 16.24 174.663 16.816C174.375 17.376 174.231 17.984 174.231 18.64V25H171.951V8.08H174.111V14.608C174.575 14.048 175.143 13.6 175.815 13.264C176.487 12.928 177.183 12.76 177.903 12.76ZM191.898 12.76C193.13 12.76 194.202 13.024 195.114 13.552C196.042 14.08 196.754 14.832 197.25 15.808C197.746 16.768 197.994 17.896 197.994 19.192C197.994 19.528 197.986 19.776 197.97 19.936H188.13C188.29 20.864 188.722 21.632 189.426 22.24C190.146 22.832 190.978 23.128 191.922 23.128C193.474 23.128 194.578 22.56 195.234 21.424H197.586C197.202 22.544 196.49 23.464 195.45 24.184C194.41 24.888 193.234 25.24 191.922 25.24C190.754 25.24 189.698 24.976 188.754 24.448C187.81 23.904 187.074 23.16 186.546 22.216C186.018 21.256 185.754 20.184 185.754 19C185.754 17.816 186.018 16.752 186.546 15.808C187.074 14.848 187.802 14.104 188.73 13.576C189.674 13.032 190.73 12.76 191.898 12.76ZM191.85 14.776C190.906 14.776 190.09 15.072 189.402 15.664C188.73 16.256 188.314 17.016 188.154 17.944H195.522C195.426 16.984 195.034 16.216 194.346 15.64C193.674 15.064 192.842 14.776 191.85 14.776ZM222.243 12.76C223.203 12.76 224.059 12.968 224.811 13.384C225.579 13.8 226.179 14.432 226.611 15.28C227.059 16.112 227.283 17.136 227.283 18.352V25H225.003V18.4C225.003 17.344 224.699 16.504 224.091 15.88C223.499 15.256 222.747 14.944 221.835 14.944C220.843 14.944 220.043 15.296 219.435 16C218.827 16.704 218.523 17.568 218.523 18.592V25H216.243V18.4C216.243 17.344 215.939 16.504 215.331 15.88C214.739 15.256 213.987 14.944 213.075 14.944C212.083 14.944 211.283 15.296 210.675 16C210.067 16.704 209.763 17.568 209.763 18.592V25H207.483V13H209.643V14.896C210.075 14.24 210.627 13.72 211.299 13.336C211.987 12.952 212.715 12.76 213.483 12.76C214.427 12.76 215.275 12.968 216.027 13.384C216.795 13.784 217.387 14.384 217.803 15.184C218.267 14.448 218.891 13.864 219.674 13.432C220.475 12.984 221.331 12.76 222.243 12.76ZM241.673 22.84V25H240.521C239.929 25 239.465 24.856 239.129 24.568C238.793 24.264 238.593 23.832 238.529 23.272C238.017 23.864 237.353 24.344 236.537 24.712C235.737 25.064 234.889 25.24 233.993 25.24C232.697 25.24 231.689 24.92 230.969 24.28C230.265 23.64 229.913 22.784 229.913 21.712C229.913 20.736 230.297 19.904 231.065 19.216C231.833 18.512 232.913 18.088 234.305 17.944L235.649 17.8C236.401 17.72 236.961 17.624 237.329 17.512C237.697 17.384 237.929 17.248 238.025 17.104C238.137 16.96 238.193 16.768 238.193 16.528C238.193 15.984 237.929 15.56 237.401 15.256C236.889 14.936 236.177 14.776 235.265 14.776C234.673 14.776 234.105 14.936 233.561 15.256C233.017 15.56 232.641 16 232.433 16.576H230.009C230.233 15.456 230.841 14.544 231.833 13.84C232.825 13.12 234.009 12.76 235.385 12.76C236.905 12.76 238.153 13.176 239.129 14.008C240.105 14.84 240.593 16.032 240.593 17.584V22.192C240.593 22.4 240.649 22.56 240.761 22.672C240.873 22.784 241.025 22.84 241.217 22.84H241.673ZM234.233 23.272C234.985 23.272 235.689 23.12 236.345 22.816C237.001 22.496 237.521 22.08 237.905 21.568C238.305 21.04 238.505 20.48 238.505 19.888V18.808C237.961 19.224 237.097 19.496 235.913 19.624L234.569 19.768C233.673 19.864 233.049 20.08 232.697 20.416C232.345 20.752 232.169 21.176 232.169 21.688C232.169 22.168 232.345 22.552 232.697 22.84C233.065 23.128 233.577 23.272 234.233 23.272ZM246.7 13V25H244.42V13H246.7ZM246.844 8.2V10.84H244.3V8.2H246.844ZM256.657 12.76C257.633 12.76 258.505 12.968 259.273 13.384C260.057 13.8 260.673 14.432 261.121 15.28C261.585 16.112 261.817 17.136 261.817 18.352V25H259.537V18.4C259.537 17.344 259.225 16.504 258.601 15.88C257.977 15.256 257.193 14.944 256.249 14.944C255.561 14.944 254.953 15.112 254.425 15.448C253.913 15.768 253.513 16.208 253.225 16.768C252.953 17.328 252.817 17.936 252.817 18.592V25H250.537V13H252.697V14.92C253.145 14.264 253.713 13.744 254.401 13.36C255.105 12.96 255.857 12.76 256.657 12.76ZM278.483 12.76C279.539 12.76 280.499 13.032 281.363 13.576C282.227 14.104 282.907 14.84 283.403 15.784C283.899 16.728 284.147 17.8 284.147 19C284.147 20.2 283.899 21.272 283.403 22.216C282.907 23.16 282.227 23.904 281.363 24.448C280.499 24.976 279.539 25.24 278.483 25.24C277.683 25.24 276.931 25.064 276.227 24.712C275.523 24.344 274.923 23.84 274.427 23.2V29.08H272.147V13H274.307V14.944C274.819 14.256 275.435 13.72 276.155 13.336C276.875 12.952 277.651 12.76 278.483 12.76ZM278.099 23.128C278.803 23.128 279.435 22.952 279.995 22.6C280.555 22.248 280.995 21.76 281.315 21.136C281.635 20.496 281.795 19.784 281.795 19C281.795 18.216 281.635 17.512 281.315 16.888C280.995 16.248 280.555 15.752 279.995 15.4C279.435 15.048 278.803 14.872 278.099 14.872C277.395 14.872 276.755 15.048 276.179 15.4C275.603 15.752 275.155 16.248 274.835 16.888C274.515 17.512 274.355 18.216 274.355 19C274.355 19.784 274.515 20.496 274.835 21.136C275.155 21.76 275.603 22.248 276.179 22.6C276.755 22.952 277.395 23.128 278.099 23.128ZM297.829 22.84V25H296.677C296.085 25 295.621 24.856 295.285 24.568C294.949 24.264 294.749 23.832 294.685 23.272C294.173 23.864 293.509 24.344 292.693 24.712C291.893 25.064 291.045 25.24 290.149 25.24C288.853 25.24 287.845 24.92 287.125 24.28C286.421 23.64 286.069 22.784 286.069 21.712C286.069 20.736 286.453 19.904 287.221 19.216C287.989 18.512 289.069 18.088 290.461 17.944L291.805 17.8C292.557 17.72 293.117 17.624 293.485 17.512C293.853 17.384 294.085 17.248 294.181 17.104C294.293 16.96 294.349 16.768 294.349 16.528C294.349 15.984 294.085 15.56 293.557 15.256C293.045 14.936 292.333 14.776 291.421 14.776C290.829 14.776 290.261 14.936 289.717 15.256C289.173 15.56 288.797 16 288.589 16.576H286.165C286.389 15.456 286.997 14.544 287.989 13.84C288.981 13.12 290.165 12.76 291.541 12.76C293.061 12.76 294.309 13.176 295.285 14.008C296.261 14.84 296.749 16.032 296.749 17.584V22.192C296.749 22.4 296.805 22.56 296.917 22.672C297.029 22.784 297.181 22.84 297.373 22.84H297.829ZM290.389 23.272C291.141 23.272 291.845 23.12 292.501 22.816C293.157 22.496 293.677 22.08 294.061 21.568C294.461 21.04 294.661 20.48 294.661 19.888V18.808C294.117 19.224 293.253 19.496 292.069 19.624L290.725 19.768C289.829 19.864 289.205 20.08 288.853 20.416C288.501 20.752 288.325 21.176 288.325 21.688C288.325 22.168 288.501 22.552 288.853 22.84C289.221 23.128 289.733 23.272 290.389 23.272ZM308.232 22.552C309.304 22.552 310.192 22.856 310.896 23.464C311.616 24.056 311.976 24.808 311.976 25.72C311.976 26.696 311.624 27.496 310.92 28.12C310.216 28.76 309.32 29.08 308.232 29.08H303.72C302.632 29.08 301.736 28.768 301.032 28.144C300.328 27.52 299.976 26.728 299.976 25.768C299.976 25.272 300.104 24.808 300.36 24.376C300.616 23.928 301 23.552 301.512 23.248C300.968 22.848 300.696 22.328 300.696 21.688C300.696 21.272 300.768 20.944 300.912 20.704C301.072 20.448 301.296 20.232 301.584 20.056C301.056 19.72 300.656 19.296 300.384 18.784C300.112 18.272 299.976 17.688 299.976 17.032C299.976 16.184 300.224 15.44 300.72 14.8C301.216 14.144 301.92 13.64 302.832 13.288C303.744 12.936 304.8 12.76 306 12.76C306.512 12.76 307.048 12.8 307.608 12.88V12.184C307.608 10.648 308.328 9.88 309.768 9.88H310.8V12.064H310.032C309.856 12.064 309.712 12.12 309.6 12.232C309.504 12.328 309.456 12.464 309.456 12.64V13.408C310.256 13.776 310.872 14.272 311.304 14.896C311.752 15.52 311.976 16.232 311.976 17.032C311.976 17.88 311.728 18.632 311.232 19.288C310.752 19.928 310.056 20.424 309.144 20.776C308.248 21.128 307.2 21.304 306 21.304C304.976 21.304 304.032 21.168 303.168 20.896C302.8 21.072 302.616 21.336 302.616 21.688C302.616 21.928 302.712 22.136 302.904 22.312C303.096 22.472 303.344 22.552 303.648 22.552H308.232ZM306 14.632C304.784 14.632 303.856 14.832 303.216 15.232C302.576 15.632 302.256 16.216 302.256 16.984C302.256 17.752 302.576 18.344 303.216 18.76C303.856 19.16 304.784 19.36 306 19.36C307.2 19.36 308.112 19.16 308.736 18.76C309.376 18.344 309.696 17.752 309.696 16.984C309.696 16.216 309.376 15.632 308.736 15.232C308.112 14.832 307.2 14.632 306 14.632ZM308.112 27.256C308.624 27.256 309.04 27.12 309.36 26.848C309.696 26.592 309.864 26.272 309.864 25.888C309.864 25.472 309.704 25.128 309.384 24.856C309.064 24.568 308.64 24.424 308.112 24.424H303.816C303.304 24.424 302.888 24.56 302.568 24.832C302.264 25.104 302.112 25.44 302.112 25.84C302.112 26.24 302.264 26.576 302.568 26.848C302.888 27.12 303.304 27.256 303.816 27.256H308.112ZM319.797 12.76C321.029 12.76 322.101 13.024 323.013 13.552C323.941 14.08 324.653 14.832 325.148 15.808C325.645 16.768 325.893 17.896 325.893 19.192C325.893 19.528 325.885 19.776 325.869 19.936H316.029C316.189 20.864 316.621 21.632 317.325 22.24C318.045 22.832 318.877 23.128 319.821 23.128C321.373 23.128 322.477 22.56 323.133 21.424H325.484C325.101 22.544 324.389 23.464 323.349 24.184C322.309 24.888 321.133 25.24 319.821 25.24C318.653 25.24 317.597 24.976 316.653 24.448C315.709 23.904 314.973 23.16 314.445 22.216C313.917 21.256 313.653 20.184 313.653 19C313.653 17.816 313.917 16.752 314.445 15.808C314.973 14.848 315.701 14.104 316.629 13.576C317.573 13.032 318.629 12.76 319.797 12.76ZM319.749 14.776C318.805 14.776 317.989 15.072 317.301 15.664C316.629 16.256 316.213 17.016 316.053 17.944H323.421C323.325 16.984 322.933 16.216 322.245 15.64C321.573 15.064 320.741 14.776 319.749 14.776Z" fill="white"/>
<path opacity="0.4" d="M51 18.5C51.8284 18.5 52.5 17.8284 52.5 17C52.5 16.1716 51.8284 15.5 51 15.5V18.5ZM0.939339 15.9393C0.353554 16.5251 0.353554 17.4749 0.939339 18.0607L10.4853 27.6066C11.0711 28.1924 12.0208 28.1924 12.6066 27.6066C13.1924 27.0208 13.1924 26.0711 12.6066 25.4853L4.12132 17L12.6066 8.51472C13.1924 7.92893 13.1924 6.97919 12.6066 6.3934C12.0208 5.80761 11.0711 5.80761 10.4853 6.3934L0.939339 15.9393ZM51 15.5L2 15.5V18.5L51 18.5V15.5Z" fill="white"/>
</svg>
