<svg width="177" height="217" viewBox="0 0 177 217" fill="none" xmlns="http://www.w3.org/2000/svg">
<path d="M86.3787 2.12132C87.5503 0.949745 89.4497 0.949748 90.6213 2.12132L97.5 9H79.5L86.3787 2.12132Z" fill="black"/>
<mask id="path-2-inside-1_749_919" fill="white">
<path fill-rule="evenodd" clip-rule="evenodd" d="M90.5632 2.19732C89.4061 1.10113 87.5939 1.10113 86.4368 2.19732L79 9.24268L30 9.24267C13.4315 9.24267 0 22.6741 0 39.2427V186.243C0 202.811 13.4315 216.243 30 216.243H147C163.569 216.243 177 202.811 177 186.243V39.2427C177 22.6741 163.569 9.24267 147 9.24267L98 9.24268L90.5632 2.19732Z"/>
</mask>
<path fill-rule="evenodd" clip-rule="evenodd" d="M90.5632 2.19732C89.4061 1.10113 87.5939 1.10113 86.4368 2.19732L79 9.24268L30 9.24267C13.4315 9.24267 0 22.6741 0 39.2427V186.243C0 202.811 13.4315 216.243 30 216.243H147C163.569 216.243 177 202.811 177 186.243V39.2427C177 22.6741 163.569 9.24267 147 9.24267L98 9.24268L90.5632 2.19732Z" fill="black"/>
<path d="M86.4368 2.19732L85.749 1.47137L85.749 1.47137L86.4368 2.19732ZM90.5632 2.19732L91.251 1.47137L91.251 1.47137L90.5632 2.19732ZM79 9.24268L79 10.2427L79.3985 10.2427L79.6877 9.96863L79 9.24268ZM30 9.24267L30 8.24267H30V9.24267ZM147 9.24267L147 8.24267L147 8.24267L147 9.24267ZM98 9.24268L97.3123 9.96863L97.6015 10.2427L98 10.2427L98 9.24268ZM87.1245 2.92327C87.8959 2.19248 89.1041 2.19248 89.8755 2.92327L91.251 1.47137C89.7082 0.00977973 87.2918 0.00978172 85.749 1.47137L87.1245 2.92327ZM79.6877 9.96863L87.1245 2.92327L85.749 1.47137L78.3123 8.51672L79.6877 9.96863ZM30 10.2427L79 10.2427L79 8.24268L30 8.24267L30 10.2427ZM1 39.2427C1 23.2264 13.9837 10.2427 30 10.2427V8.24267C12.8792 8.24267 -1 22.1218 -1 39.2427H1ZM1 186.243V39.2427H-1V186.243H1ZM30 215.243C13.9837 215.243 1 202.259 1 186.243H-1C-1 203.364 12.8792 217.243 30 217.243V215.243ZM147 215.243H30V217.243H147V215.243ZM176 186.243C176 202.259 163.016 215.243 147 215.243V217.243C164.121 217.243 178 203.364 178 186.243H176ZM176 39.2427V186.243H178V39.2427H176ZM147 10.2427C163.016 10.2427 176 23.2264 176 39.2427H178C178 22.1218 164.121 8.24267 147 8.24267V10.2427ZM98 10.2427L147 10.2427L147 8.24267L98 8.24268L98 10.2427ZM89.8755 2.92327L97.3123 9.96863L98.6877 8.51672L91.251 1.47137L89.8755 2.92327Z" fill="white" mask="url(#path-2-inside-1_749_919)"/>
</svg>
