<svg width="82" height="82" viewBox="0 0 82 82" fill="none" xmlns="http://www.w3.org/2000/svg">
<rect width="82" height="82" rx="41" fill="white"/>
<path fill-rule="evenodd" clip-rule="evenodd" d="M51.665 25.115C52.8455 25.12 53.9768 25.5886 54.815 26.42C56.4713 28.0348 56.6334 30.6424 55.19 32.45L43.7 46.49L43.55 46.655C42.3623 47.8548 40.7381 48.5206 39.05 48.5C38.3964 48.4814 37.7492 48.3651 37.13 48.155C37.5806 48.9946 37.8175 49.9322 37.82 50.885C37.82 52.4763 37.1879 54.0024 36.0626 55.1276C34.9374 56.2528 33.4113 56.885 31.82 56.885H28.07C26.8274 56.885 25.82 55.8776 25.82 54.635V50.885C25.82 47.5713 28.5063 44.885 31.82 44.885C32.3905 44.8893 32.9569 44.9803 33.5 45.155C32.1805 42.7231 32.6335 39.7111 34.61 37.775L34.79 37.625L48.83 26.135C49.6297 25.4793 50.6309 25.1191 51.665 25.115ZM39.5 43.4L44 38.9C44.413 38.4567 44.4009 37.766 43.9724 37.3376C43.544 36.9091 42.8533 36.897 42.41 37.31L37.91 41.81C37.4713 42.2492 37.4713 42.9608 37.91 43.4C38.1198 43.6124 38.4064 43.7314 38.705 43.73C39.0046 43.7368 39.2932 43.617 39.5 43.4Z" fill="black"/>
</svg>
