<svg width="82" height="82" viewBox="0 0 82 82" fill="none" xmlns="http://www.w3.org/2000/svg">
<rect x="82" width="82" height="82" rx="41" transform="rotate(90 82 0)" fill="#703FFF"/>
<path d="M56.195 50.5551L56.195 39.1251L53.78 39.1251C53.1587 39.1251 52.655 38.6214 52.655 38.0001C52.655 37.3788 53.1587 36.8751 53.78 36.8751L56.195 36.8751L56.195 34.6701L51.185 34.6701C50.5637 34.6701 50.06 34.1664 50.06 33.5451C50.06 32.9238 50.5637 32.4201 51.185 32.4201L56.195 32.4201L56.195 31.4451C56.249 30.6162 55.9569 29.8021 55.3884 29.1966C54.8198 28.591 54.0256 28.2484 53.195 28.2501L43.685 28.2501L43.685 53.7501L53.195 53.7501C54.0256 53.7519 54.8198 53.4092 55.3884 52.8036C55.9569 52.1981 56.249 51.384 56.195 50.5551Z" fill="black"/>
<path fill-rule="evenodd" clip-rule="evenodd" d="M36.41 32.1201C36.4429 29.9696 38.2044 28.2484 40.355 28.2651L41.45 28.2351L41.45 53.7351L40.235 53.7351C38.0844 53.7518 36.3229 52.0306 36.29 49.8801L36.425 44.7201L35.735 44.8551C35.1346 44.8822 34.5534 45.0742 34.055 45.4101C33.1932 45.9396 32.2015 46.2199 31.19 46.2201C29.674 46.2293 28.2248 45.5973 27.2 44.4801C25.369 42.5156 25.369 39.4696 27.2 37.5051C28.2087 36.4111 29.627 35.7862 31.115 35.7801C32.1252 35.775 33.1169 36.0502 33.98 36.5751C34.4731 36.9237 35.0566 37.1217 35.66 37.1451L36.41 37.1451L36.41 32.1201ZM31.385 40.9101C31.385 40.2888 30.8813 39.7851 30.26 39.7851L28.91 39.7851C28.2887 39.7851 27.785 40.2888 27.785 40.9101C27.785 41.5314 28.2887 42.0351 28.91 42.0351L30.26 42.0351C30.8813 42.0351 31.385 41.5314 31.385 40.9101Z" fill="black"/>
</svg>
