<svg width="82" height="82" viewBox="0 0 82 82" fill="none" xmlns="http://www.w3.org/2000/svg">
<rect width="82" height="82" rx="41" fill="#FF6DB2"/>
<path d="M42.85 36.7984C43.5833 38.0651 44.2667 39.3484 44.9167 40.6484L45.3 40.5151C48.6416 39.5712 52.1401 39.316 55.5833 39.7651C55.3336 36.2725 53.851 32.9824 51.4 30.4818L48.9667 32.5818C47.0815 34.1983 45.0313 35.6116 42.85 36.7984Z" fill="black"/>
<path d="M35.8 26.9151C37.9054 29.3529 39.8274 31.9433 41.55 34.6651C43.6174 33.5524 45.5567 32.2166 47.3333 30.6818L49.5 28.8318C45.5456 25.9328 40.4022 25.207 35.8 26.8984V26.9151Z" fill="black"/>
<path d="M29.6333 38.4318C32.9701 38.0674 36.2307 37.1904 39.3 35.8318C37.692 33.2958 35.9041 30.8785 33.95 28.5984L33.3833 28.0151C29.417 30.301 26.7334 34.2956 26.1167 38.8318L29.6333 38.4318Z" fill="black"/>
<path d="M46.0167 42.9151C47.3484 45.8458 48.4626 48.8707 49.35 51.9651L49.5667 52.7651C52.9662 50.2799 55.1383 46.4576 55.5333 42.2651C52.3505 41.8158 49.1089 42.0372 46.0167 42.9151Z" fill="black"/>
<path d="M30.2833 51.2651C32.296 47.9752 35.112 45.251 38.4667 43.3484C39.7843 42.6351 41.1485 42.0115 42.55 41.4818C41.9333 40.2651 41.3 39.0818 40.6167 37.9318C37.2273 39.4779 33.617 40.4845 29.9167 40.9151L26 41.3484V41.7984C26.2367 45.368 27.7584 48.7309 30.2833 51.2651Z" fill="black"/>
<path d="M46.9333 52.6484C46.054 49.6 44.9396 46.6244 43.6 43.7484C42.2352 44.263 40.9047 44.8642 39.6167 45.5484C36.5273 47.31 33.953 49.8498 32.15 52.9151C36.5902 56.0807 42.4115 56.5482 47.3 54.1318L46.9333 52.6484Z" fill="black"/>
</svg>
