<svg width="82" height="82" viewBox="0 0 82 82" fill="none" xmlns="http://www.w3.org/2000/svg">
<rect width="82" height="82" rx="41" fill="#92D700"/>
<path d="M45.5 36.5C43.1273 36.4947 41.1582 38.3326 41 40.7V36.5H45.5C47.9853 36.5 50 34.4853 50 32C50 29.5147 47.9853 27.5 45.5 27.5H36.5C34.0147 27.5 32 29.5147 32 32C32 34.4853 34.0147 36.5 36.5 36.5C34.0147 36.5 32 38.5147 32 41C32 43.4853 34.0147 45.5 36.5 45.5C34.0147 45.5 32 47.5147 32 50C32 52.4853 34.0147 54.5 36.5 54.5C38.9853 54.5 41 52.4853 41 50V41.3C41.163 43.7396 43.2441 45.6026 45.6867 45.4957C48.1294 45.3888 50.0398 43.3511 49.989 40.9066C49.9383 38.4621 47.945 36.5054 45.5 36.5Z" fill="black"/>
</svg>
