<svg width="82" height="82" viewBox="0 0 82 82" fill="none" xmlns="http://www.w3.org/2000/svg">
<rect width="82" height="82" rx="41" fill="#FF7A00"/>
<path fill-rule="evenodd" clip-rule="evenodd" d="M44.345 26H38C31.3726 26 26 31.3726 26 38V44.36C26 50.9874 31.3726 56.36 38 56.36H44.345C50.9724 56.36 56.345 50.9874 56.345 44.36V38C56.345 31.3726 50.9724 26 44.345 26ZM35.18 32.18C36.8369 32.18 38.18 33.5231 38.18 35.18C38.18 36.8369 36.8369 38.18 35.18 38.18C33.5231 38.18 32.18 36.8369 32.18 35.18C32.18 33.5231 33.5231 32.18 35.18 32.18ZM46.265 53.18C50.5117 51.594 53.3318 47.5432 53.345 43.01L53.3 40.43C53.3 39.815 53.18 38.66 53.18 38.66H50.735C45.0746 38.6772 39.9059 41.8793 37.37 46.94C35.5294 45.2946 33.1489 44.3819 30.68 44.375H28.865C28.7311 47.8621 30.6251 51.1123 33.725 52.715C34.8332 53.3053 36.0694 53.6144 37.325 53.615H43.58C44.4935 53.6281 45.4023 53.4808 46.265 53.18Z" fill="black"/>
</svg>
