<svg width="82" height="82" viewBox="0 0 82 82" fill="none" xmlns="http://www.w3.org/2000/svg">
<rect width="82" height="82" rx="41" fill="#FF7A00"/>
<path fill-rule="evenodd" clip-rule="evenodd" d="M49.9617 48.4655C49.9641 48.7626 49.8685 48.848 49.5793 48.8412C48.7581 48.8255 47.9367 48.8131 47.1167 48.8457C46.705 48.8626 46.5811 48.7557 46.5867 48.3272C46.6116 46.481 46.5957 44.6337 46.5991 42.7866C46.5991 42.2803 46.5655 41.7786 46.3797 41.3015C46.0647 40.496 45.5213 39.9505 44.6203 39.8716C43.6617 39.7872 42.9655 40.2237 42.4952 41.0327C42.187 41.5626 42.1161 42.1542 42.1172 42.7595C42.1217 44.6259 42.1071 46.4911 42.1284 48.3564C42.1341 48.7581 42.0113 48.8581 41.6266 48.8446C40.8065 48.8165 39.9852 48.8233 39.1641 48.8425C38.8491 48.8502 38.7533 48.7557 38.7533 48.4362C38.7636 44.5932 38.7623 40.7502 38.7557 36.9073C38.7557 36.6317 38.812 36.5079 39.1223 36.5147C39.9987 36.5337 40.8762 36.5337 41.7526 36.5147C42.0563 36.5091 42.1362 36.6192 42.1238 36.9028C42.1047 37.363 42.1193 37.8241 42.1193 38.4046C43.4188 36.7981 44.9836 36.2706 46.8422 36.6452C48.6422 37.0085 49.8807 38.6286 49.9325 40.7987C49.9932 43.3524 49.9483 45.9095 49.9617 48.4655ZM34.8362 35.0848C33.746 35.0825 32.8932 34.2185 32.8956 33.1206C32.8977 32.036 33.7765 31.1518 34.8474 31.154C35.9196 31.1574 36.7903 32.045 36.787 33.1306C36.7846 34.231 35.9297 35.087 34.8362 35.0848ZM36.0422 48.8457C35.2231 48.8131 34.4008 48.8255 33.5807 48.8412C33.287 48.847 33.1543 48.7929 33.1554 48.4509C33.1667 44.6101 33.1655 40.7706 33.1565 36.9297C33.1554 36.6216 33.2297 36.5056 33.5581 36.5147C34.3963 36.536 35.2366 36.5417 36.0737 36.5124C36.4595 36.4989 36.5304 36.6417 36.5282 36.9905C36.5136 38.8917 36.5214 40.793 36.5214 42.6954C36.5214 44.5775 36.5102 46.4608 36.5293 48.344C36.5338 48.7265 36.446 48.8616 36.0422 48.8457ZM54.3774 32.0563C54.3009 31.4454 54.2907 30.8165 53.9532 30.2698C52.861 28.498 51.3534 27.4887 49.1922 27.5001C43.7248 27.5282 38.2573 27.5001 32.7897 27.5192C31.9686 27.5214 31.1237 27.5484 30.3778 27.9894C28.5575 29.0671 27.4887 30.5735 27.5001 32.7819C27.5259 38.2675 27.5001 43.7529 27.518 49.2395C27.5214 50.0124 27.5327 50.8212 27.9376 51.5176C28.8939 53.1647 30.154 54.3876 32.2239 54.3796C32.2835 54.3796 32.3297 54.4077 32.3792 54.4336H49.6198C49.7155 54.3481 49.8325 54.3909 49.9405 54.3774C50.5602 54.2997 51.2005 54.2964 51.7505 53.9409C53.2884 52.9464 54.419 51.6942 54.3842 49.7154C54.3842 49.6805 54.4089 49.6491 54.4348 49.6198V32.3792C54.3582 32.2813 54.3909 32.1654 54.3774 32.0563Z" fill="black"/>
</svg>
