<svg width="191" height="38" viewBox="0 0 191 38" fill="none" xmlns="http://www.w3.org/2000/svg">
<path d="M58.2 19.88H49.88V33H46.84V19.88H43.64V17H46.84V15.272C46.84 13.6293 47.3093 12.392 48.248 11.56C49.208 10.7067 50.616 10.28 52.472 10.28C53.0267 10.28 53.5813 10.312 54.136 10.376C54.6907 10.44 55.0853 10.504 55.32 10.568V13.352C54.7227 13.224 53.8053 13.16 52.568 13.16C51.5653 13.16 50.8613 13.3413 50.456 13.704C50.072 14.0667 49.88 14.5893 49.88 15.272V17H58.2V19.88ZM63.2793 13.16C62.4046 13.16 61.7859 13.3413 61.4233 13.704C61.0819 14.0667 60.9113 14.5893 60.9113 15.272V17H65.3913V19.88H60.9113V33H57.8713V19.88H54.6713V17H57.8713V15.272C57.8713 13.6293 58.3193 12.392 59.2153 11.56C60.1113 10.7067 61.4339 10.28 63.1833 10.28C64.0366 10.28 64.7726 10.376 65.3913 10.568V13.352C64.7939 13.224 64.0899 13.16 63.2793 13.16ZM85.3988 13.672H77.3988V33H74.1988V13.672H66.1988V10.6H85.3988V13.672ZM96.371 16.68C97.715 16.68 98.9203 16.9573 99.987 17.512C101.075 18.0667 101.928 18.9093 102.547 20.04C103.166 21.1493 103.475 22.5147 103.475 24.136V33H100.435V24.2C100.435 22.792 100.019 21.672 99.187 20.84C98.355 20.008 97.3097 19.592 96.051 19.592C95.1977 19.592 94.419 19.816 93.715 20.264C93.011 20.712 92.4563 21.32 92.051 22.088C91.667 22.8347 91.475 23.6453 91.475 24.52V33H88.435V10.44H91.315V19.144C91.9337 18.3973 92.691 17.8 93.587 17.352C94.483 16.904 95.411 16.68 96.371 16.68ZM115.031 16.68C116.673 16.68 118.103 17.032 119.319 17.736C120.556 18.44 121.505 19.4427 122.167 20.744C122.828 22.024 123.159 23.528 123.159 25.256C123.159 25.704 123.148 26.0347 123.127 26.248H110.007C110.22 27.4853 110.796 28.5093 111.735 29.32C112.695 30.1093 113.804 30.504 115.063 30.504C117.132 30.504 118.604 29.7467 119.479 28.232H122.615C122.103 29.7253 121.153 30.952 119.767 31.912C118.38 32.8507 116.812 33.32 115.063 33.32C113.505 33.32 112.097 32.968 110.839 32.264C109.58 31.5387 108.599 30.5467 107.895 29.288C107.191 28.008 106.839 26.5787 106.839 25C106.839 23.4213 107.191 22.0027 107.895 20.744C108.599 19.464 109.569 18.472 110.807 17.768C112.065 17.0427 113.473 16.68 115.031 16.68ZM114.967 19.368C113.708 19.368 112.62 19.7627 111.703 20.552C110.807 21.3413 110.252 22.3547 110.039 23.592H119.863C119.735 22.312 119.212 21.288 118.295 20.52C117.399 19.752 116.289 19.368 114.967 19.368ZM147.961 21.48V33H145.081V29.224C144.207 30.4827 143.076 31.4853 141.689 32.232C140.324 32.9573 138.767 33.32 137.017 33.32C134.927 33.32 133.017 32.8187 131.289 31.816C129.561 30.792 128.196 29.4053 127.193 27.656C126.212 25.8853 125.721 23.9333 125.721 21.8C125.721 19.6667 126.223 17.7253 127.225 15.976C128.249 14.2053 129.636 12.8187 131.385 11.816C133.135 10.792 135.076 10.28 137.209 10.28C139.449 10.28 141.465 10.888 143.257 12.104C145.071 13.32 146.372 14.952 147.161 17H143.513C142.852 15.8693 141.977 14.984 140.889 14.344C139.801 13.6827 138.575 13.352 137.209 13.352C135.695 13.352 134.319 13.7253 133.081 14.472C131.844 15.2187 130.863 16.2427 130.137 17.544C129.433 18.824 129.081 20.2427 129.081 21.8C129.081 23.3573 129.433 24.7867 130.137 26.088C130.841 27.368 131.801 28.3813 133.017 29.128C134.233 29.8747 135.577 30.248 137.049 30.248C139.033 30.248 140.687 29.6933 142.009 28.584C143.353 27.4533 144.239 26.056 144.665 24.392H136.697V21.48H147.961ZM160.908 16.68C161.42 16.68 161.9 16.712 162.348 16.776V19.752C161.964 19.6667 161.356 19.624 160.524 19.624C159.585 19.624 158.753 19.8373 158.028 20.264C157.324 20.6907 156.769 21.2667 156.364 21.992C155.98 22.696 155.788 23.4747 155.788 24.328V33H152.748V17H155.628V19.464C156.225 18.6107 156.982 17.9387 157.9 17.448C158.838 16.936 159.841 16.68 160.908 16.68ZM168.6 17V33H165.56V17H168.6ZM168.792 10.6V14.12H165.4V10.6H168.792ZM188.276 10.44V33H185.236V30.6C184.575 31.4533 183.775 32.1253 182.836 32.616C181.898 33.0853 180.895 33.32 179.828 33.32C178.42 33.32 177.14 32.968 175.988 32.264C174.836 31.5387 173.93 30.5467 173.268 29.288C172.607 28.0293 172.276 26.6 172.276 25C172.276 23.4 172.607 21.9707 173.268 20.712C173.93 19.4533 174.836 18.472 175.988 17.768C177.14 17.0427 178.42 16.68 179.828 16.68C180.938 16.68 181.972 16.936 182.932 17.448C183.892 17.96 184.714 18.6747 185.396 19.592V10.44H188.276ZM180.34 30.504C181.279 30.504 182.132 30.2693 182.9 29.8C183.668 29.3307 184.266 28.68 184.692 27.848C185.119 26.9947 185.332 26.0453 185.332 25C185.332 23.9547 185.119 23.016 184.692 22.184C184.266 21.3307 183.668 20.6693 182.9 20.2C182.132 19.7307 181.279 19.496 180.34 19.496C179.402 19.496 178.559 19.7307 177.812 20.2C177.066 20.6693 176.479 21.3307 176.052 22.184C175.626 23.016 175.412 23.9547 175.412 25C175.412 26.0453 175.626 26.9947 176.052 27.848C176.479 28.68 177.066 29.3307 177.812 29.8C178.559 30.2693 179.402 30.504 180.34 30.504Z" fill="white"/>
<rect x="2.5" y="12.5" width="36" height="18" rx="9" stroke="#97D317" stroke-width="5"/>
<circle cx="28.5" cy="21.5" r="5.5" fill="white"/>
</svg>
