<svg width="82" height="82" viewBox="0 0 82 82" fill="none" xmlns="http://www.w3.org/2000/svg">
<rect width="82" height="82" rx="41" fill="#FF6DB2"/>
<path fill-rule="evenodd" clip-rule="evenodd" d="M54.9448 45.7348L56.0848 53.6548C56.1764 54.322 55.9495 54.9934 55.4718 55.4681C54.9942 55.9427 54.3214 56.1656 53.6548 56.0698L45.7348 54.9298C44.6613 54.7818 43.6656 54.2867 42.8998 53.5198L28.2898 38.8948C26.3402 37.0118 25.5583 34.2233 26.2446 31.601C26.931 28.9788 28.9788 26.931 31.601 26.2446C34.2233 25.5583 37.0118 26.3402 38.8948 28.2898L53.5348 42.8998C54.3017 43.6656 54.7968 44.6613 54.9448 45.7348ZM39.0598 40.6498C39.4991 41.0885 40.2106 41.0885 40.6498 40.6498C41.0885 40.2106 41.0885 39.4991 40.6498 39.0598L34.3348 32.7448C33.8916 32.3318 33.2008 32.344 32.7724 32.7724C32.344 33.2008 32.3318 33.8916 32.7448 34.3348L39.0598 40.6498Z" fill="black"/>
</svg>
