<svg width="82" height="78" viewBox="0 0 82 78" fill="none" xmlns="http://www.w3.org/2000/svg">
<rect width="82" height="78" rx="39" fill="#703FFF"/>
<path d="M38.855 35.7451L31.625 31.5751C30.4636 30.9045 29.0325 30.9052 27.8718 31.5769C26.7111 32.2486 25.9974 33.489 26 34.8301V43.1701C25.97 44.5245 26.673 45.7898 27.8387 46.4799C29.0045 47.1701 30.4519 47.1778 31.625 46.5001L38.855 42.3301C40.0516 41.6664 40.7939 40.4058 40.7939 39.0376C40.7939 37.6693 40.0516 36.4087 38.855 35.7451Z" fill="black"/>
<path d="M45.95 30.9301C45.1216 30.9301 44.45 31.6016 44.45 32.4301V45.7651C44.45 46.5935 45.1216 47.2651 45.95 47.2651C46.7784 47.2651 47.45 46.5935 47.45 45.7651V32.4301C47.45 31.6016 46.7784 30.9301 45.95 30.9301Z" fill="black"/>
<path d="M54.5 30.9301C53.6716 30.9301 53 31.6016 53 32.4301V45.7651C53 46.5935 53.6716 47.2651 54.5 47.2651C55.3284 47.2651 56 46.5935 56 45.7651V32.4301C56 31.6016 55.3284 30.9301 54.5 30.9301Z" fill="black"/>
</svg>
