<svg width="82" height="82" viewBox="0 0 82 82" fill="none" xmlns="http://www.w3.org/2000/svg">
<rect width="82" height="82" rx="41" fill="#92D700"/>
<path d="M26.5249 37.325L38.4049 43.325C39.6164 43.8938 41.0183 43.8938 42.2299 43.325L55.4149 37.325C55.8924 37.0608 56.1887 36.5582 56.1887 36.0125C56.1887 35.4668 55.8924 34.9642 55.4149 34.7L42.2299 28.7C41.6552 28.4393 41.0309 28.3062 40.3999 28.31C39.708 28.3096 39.0253 28.4687 38.4049 28.775L26.5249 34.775C26.0836 35.0485 25.8151 35.5308 25.8151 36.05C25.8151 36.5692 26.0836 37.0515 26.5249 37.325Z" fill="#171717"/>
<path d="M54.9349 41L41.6599 46.535C40.848 46.9189 39.9068 46.9189 39.0949 46.535L27.3349 41C26.7672 40.7444 26.0995 40.9915 25.8349 41.555C25.7079 41.8273 25.6951 42.139 25.7994 42.4208C25.9037 42.7026 26.1163 42.9309 26.3899 43.055L38.1199 48.5C38.8488 48.8553 39.649 49.04 40.4599 49.04C41.1839 49.0412 41.8999 48.8878 42.5599 48.59L55.7899 43.085C56.3656 42.8489 56.641 42.1908 56.4049 41.615C56.1688 41.0392 55.5106 40.7639 54.9349 41Z" fill="#171717"/>
<path d="M54.9349 45.62L41.6599 51.155C40.848 51.5389 39.9068 51.5389 39.0949 51.155L27.3349 45.635C26.9678 45.4662 26.5385 45.506 26.2088 45.7396C25.8791 45.9731 25.6989 46.3647 25.7363 46.7671C25.7736 47.1694 26.0228 47.5212 26.3899 47.69L38.1199 53.12C38.8477 53.48 39.6479 53.6698 40.4599 53.675C41.185 53.671 41.9009 53.5125 42.5599 53.21L55.7899 47.705C56.0742 47.5924 56.3005 47.3688 56.4165 47.0858C56.5325 46.8029 56.5283 46.4848 56.4049 46.205C56.1579 45.6402 55.5024 45.3793 54.9349 45.62Z" fill="#171717"/>
</svg>
