<svg width="82" height="82" viewBox="0 0 82 82" fill="none" xmlns="http://www.w3.org/2000/svg">
<rect width="82" height="82" rx="41" fill="#92D700"/>
<path d="M28.01 30.1066C29.0676 31.2889 30.2438 32.3595 31.52 33.3016C32.7113 34.0911 33.9898 34.7404 35.33 35.2366C36.4052 35.6303 37.5151 35.9216 38.645 36.1066L40.145 36.2266C39.7822 34.5949 40.1077 32.8857 41.045 31.5016C42.0227 30.1724 43.4817 29.2787 45.11 29.0116C46.3324 28.9415 47.5521 29.1896 48.65 29.7316C50.03 30.5416 50.15 30.8416 50.15 30.8416C50.967 30.6941 51.7629 30.4473 52.52 30.1066L53.81 29.4166C53.5832 30.1946 53.1774 30.9087 52.625 31.5016C51.89 32.1766 51.215 32.6716 51.215 32.6716C51.8821 32.6629 52.5423 32.536 53.165 32.2966L54.665 31.7566C54.1748 32.4682 53.6118 33.1268 52.985 33.7216C52.265 34.2916 51.68 34.8166 51.68 34.8166C51.8608 37.8801 51.158 40.9311 49.655 43.6066C48.5269 45.7827 46.9032 47.6632 44.915 49.0966C42.9808 50.5074 40.7571 51.4706 38.405 51.9166C36.5743 52.2511 34.7046 52.3168 32.855 52.1116C31.3706 51.8859 29.9164 51.4934 28.52 50.9416C27.6064 50.6522 26.7527 50.1999 26 49.6066C27.7203 49.8434 29.4721 49.6739 31.115 49.1116C32.3801 48.6161 33.5792 47.9662 34.685 47.1766C33.8475 47.1693 33.0224 46.9745 32.27 46.6066C31.3395 46.1671 30.5461 45.4827 29.975 44.6266C29.732 44.2606 29.5212 43.8741 29.345 43.4716L29.24 43.0966C29.6469 43.1968 30.0671 43.2322 30.485 43.2016L31.865 42.9916C30.667 42.7682 29.5759 42.1568 28.76 41.2516C27.8767 40.2973 27.3473 39.069 27.26 37.7716V37.1566C27.7245 37.436 28.231 37.6386 28.76 37.7566C29.1209 37.8584 29.4953 37.904 29.87 37.8916C28.72 37.1546 27.8694 36.0328 27.47 34.7266C27.0215 33.1767 27.2161 31.5114 28.01 30.1066Z" fill="black"/>
</svg>
