<svg width="82" height="82" viewBox="0 0 82 82" fill="none" xmlns="http://www.w3.org/2000/svg">
<rect width="82" height="82" rx="41" fill="#FF6DB2"/>
<path d="M40.4067 28.2606L32.2317 42.5856C31.9219 43.1155 31.9228 43.7714 32.234 44.3004C32.5452 44.8294 33.1181 45.1489 33.7317 45.1356H38.0217C38.5733 45.1316 39.1036 45.348 39.4951 45.7366C39.8865 46.1252 40.1067 46.654 40.1067 47.2056V52.6206C40.1118 53.2785 40.5449 53.8562 41.1749 54.0456C41.8049 54.2349 42.4848 53.9917 42.8517 53.4456L50.7717 41.5656C51.1183 41.0429 51.151 40.3724 50.8568 39.8185C50.5626 39.2646 49.9888 38.9162 49.3617 38.9106H45.2817C44.1384 38.9106 43.2117 37.9839 43.2117 36.8406V29.0106C43.2165 28.3275 42.7591 27.7275 42.0992 27.551C41.4392 27.3746 40.7435 27.6663 40.4067 28.2606Z" fill="black"/>
</svg>
